HIERARCHY
ROOT Hips
{
	OFFSET -0.001795 -0.223333 0.028219
	CHANNELS 6 Xposition Yposition Zposition Zrotation Yrotation Xrotation 
	JOINT LeftUpLeg
	{
		OFFSET 0.069520 -0.091406 -0.006815
		CHANNELS 3 Zrotation Yrotation Xrotation
		JOINT LeftLeg
		{
			OFFSET 0.034277 -0.375199 -0.004496
			CHANNELS 3 Zrotation Yrotation Xrotation
			JOINT LeftFoot
			{
				OFFSET -0.013596 -0.397961 -0.043693
				CHANNELS 3 Zrotation Yrotation Xrotation
				JOINT LeftToe
				{
					OFFSET 0.026358 -0.055791 0.119288
					CHANNELS 3 Zrotation Yrotation Xrotation
					End Site
					{
						OFFSET 0.000000 0.000000 0.000000
					}
				}
			}
		}
	}
	JOINT RightUpLeg
	{
		OFFSET -0.067670 -0.090522 -0.004320
		CHANNELS 3 Zrotation Yrotation Xrotation
		JOINT RightLeg
		{
			OFFSET -0.038290 -0.382569 -0.008850
			CHANNELS 3 Zrotation Yrotation Xrotation
			JOINT RightFoot
			{
				OFFSET 0.015774 -0.398415 -0.042312
				CHANNELS 3 Zrotation Yrotation Xrotation
				JOINT RightToe
				{
					OFFSET -0.025372 -0.048144 0.123348
					CHANNELS 3 Zrotation Yrotation Xrotation
					End Site
					{
						OFFSET 0.000000 0.000000 0.000000
					}
				}
			}
		}
	}
	JOINT Spine
	{
		OFFSET -0.002533 0.108963 -0.026696
		CHANNELS 3 Zrotation Yrotation Xrotation
		JOINT Spine1
		{
			OFFSET 0.005487 0.135180 0.001092
			CHANNELS 3 Zrotation Yrotation Xrotation
			JOINT Spine2
			{
				OFFSET 0.001457 0.052922 0.025425
				CHANNELS 3 Zrotation Yrotation Xrotation
				JOINT Neck
				{
					OFFSET -0.002778 0.213870 -0.042857
					CHANNELS 3 Zrotation Yrotation Xrotation
					JOINT Head
					{
						OFFSET 0.005152 0.064970 0.051349
						CHANNELS 3 Zrotation Yrotation Xrotation
						End Site
						{
							OFFSET 0.000000 0.000000 0.000000
						}
					}
				}
				JOINT LeftShoulder
				{
					OFFSET 0.078845 0.121749 -0.034090
					CHANNELS 3 Zrotation Yrotation Xrotation
					JOINT LeftArm
					{
						OFFSET 0.090977 0.030469 -0.008868
						CHANNELS 3 Zrotation Yrotation Xrotation
						JOINT LeftForeArm
						{
							OFFSET 0.259612 -0.012772 -0.027456
							CHANNELS 3 Zrotation Yrotation Xrotation
							JOINT LeftHand
							{
								OFFSET 0.249234 0.008986 -0.001171
								CHANNELS 3 Zrotation Yrotation Xrotation
								End Site
								{
									OFFSET 0.000000 0.000000 0.000000
								}
							}
						}
					}
				}
				JOINT RightShoulder
				{
					OFFSET -0.081759 0.118833 -0.038615
					CHANNELS 3 Zrotation Yrotation Xrotation
					JOINT RightArm
					{
						OFFSET -0.096012 0.032551 -0.009143
						CHANNELS 3 Zrotation Yrotation Xrotation
						JOINT RightForeArm
						{
							OFFSET -0.253742 -0.013329 -0.021401
							CHANNELS 3 Zrotation Yrotation Xrotation
							JOINT RightHand
							{
								OFFSET -0.255298 0.007772 -0.005559
								CHANNELS 3 Zrotation Yrotation Xrotation
								End Site
								{
									OFFSET 0.000000 0.000000 0.000000
								}
							}
						}
					}
				}
			}
		}
	}
}
MOTION
Frames: 15
Frame Time: 0.050000
0.080582 0.938264 -0.088368 -7.130602 40.193395 4.181710 7.130416 -0.952358 -6.478825 -0.378033 -0.127983 -8.477992 -6.109425 -5.484903 6.720651 0.000000 0.000000 0.000000 2.853134 0.782446 -6.103190 -0.120647 -0.169789 -4.741564 3.909095 8.427833 7.057457 0.000000 0.000000 0.000000 0.871504 -0.037860 -0.008526 -7.426370 2.725989 0.370782 1.616710 6.686651 3.837318 5.325316 1.343704 -19.322828 0.000000 0.000000 0.000000 -23.654228 -16.104199 -2.818456 -43.304842 -14.052648 2.636669 -32.147094 -54.379913 13.244061 0.000000 0.000000 0.000000 7.115866 18.647198 11.315815 27.816123 47.149226 8.592365 -42.853435 58.480077 -16.772749 0.000000 0.000000 0.000000 
0.081263 0.938441 -0.088369 -7.050625 42.293099 4.662482 7.058617 -1.006791 -7.147172 -0.499711 -0.200838 -9.003367 -6.545234 -5.397333 7.478770 0.000000 0.000000 0.000000 2.407068 0.791593 -6.705486 0.424220 -0.229906 -4.222411 3.274561 7.252247 6.527380 0.000000 0.000000 0.000000 0.742390 -0.018306 -0.547452 -7.298472 2.628795 0.078094 1.153916 6.401708 4.205861 5.542320 1.446321 -19.825085 0.000000 0.000000 0.000000 -24.131956 -16.839234 -2.991561 -44.083480 -13.038110 2.466035 -29.775876 -52.920057 11.520377 0.000000 0.000000 0.000000 8.384293 15.162140 10.218597 33.290654 41.664442 8.465178 -51.262915 68.110606 -24.720280 0.000000 0.000000 0.000000 
0.082495 0.937808 -0.088272 -6.846843 43.982768 5.145991 6.546285 -1.003116 -7.530187 -0.326592 -0.249866 -9.413863 -6.956868 -5.940946 7.573196 0.000000 0.000000 0.000000 2.054618 0.771919 -6.972242 0.553273 -0.241724 -3.897504 2.921630 6.601451 5.934872 0.000000 0.000000 0.000000 0.421133 0.002462 -1.155803 -6.984529 2.494239 -0.309929 0.634487 5.243113 5.055258 4.818258 1.855516 -19.819838 0.000000 0.000000 0.000000 -24.666950 -16.155203 -3.533108 -43.706690 -12.394429 2.210924 -26.874285 -51.125159 9.933014 0.000000 0.000000 0.000000 10.990122 12.043214 9.603565 36.293105 33.520329 5.822646 -70.387331 81.940394 -47.847077 0.000000 0.000000 0.000000 
0.083847 0.937043 -0.088253 -7.009585 45.706224 5.260118 6.637418 -1.069222 -8.188654 -0.407602 -0.285429 -9.303257 -7.292342 -6.187946 7.829831 0.000000 0.000000 0.000000 1.873300 0.776698 -7.497667 1.137618 -0.330377 -3.282491 2.337047 5.420734 5.909422 0.000000 0.000000 0.000000 0.023809 0.015842 -1.718614 -6.500487 2.289824 -0.505676 0.610587 3.738611 5.764445 4.796977 1.842020 -19.813692 0.000000 0.000000 0.000000 -24.700300 -14.954442 -4.018484 -43.720653 -11.979975 1.905995 -25.652602 -49.256308 9.171090 0.000000 0.000000 0.000000 12.552920 7.988758 7.852103 38.863151 25.137132 3.086764 148.023300 83.982459 162.822474 0.000000 0.000000 0.000000 
0.085171 0.936748 -0.088602 -6.497655 46.712271 5.479679 5.913192 -1.003473 -8.041666 -0.201738 -0.254689 -8.742604 -7.323631 -6.922381 7.140460 0.000000 0.000000 0.000000 1.388744 0.722075 -7.624434 1.430284 -0.379492 -2.635148 2.222791 5.158543 5.068716 0.000000 0.000000 0.000000 -0.382586 0.016786 -1.628480 -6.253541 2.208553 -0.813631 0.394884 2.651261 6.210869 4.598112 1.860722 -19.505703 0.000000 0.000000 0.000000 -24.429494 -13.293278 -4.664158 -43.375082 -10.726353 1.302253 -25.363407 -49.512946 9.178396 0.000000 0.000000 0.000000 15.056094 3.757139 6.160143 38.307650 17.482251 0.109870 127.175388 72.573757 131.198182 0.000000 0.000000 0.000000 
0.086358 0.936530 -0.089355 -6.165969 47.904251 5.766519 5.528290 -0.999563 -8.320766 -0.404126 -0.271309 -8.398826 -7.578886 -7.001187 7.426041 0.000000 0.000000 0.000000 1.057861 0.685442 -8.035215 1.686758 -0.435540 -2.354472 1.348039 3.323524 5.191857 0.000000 0.000000 0.000000 -0.536383 0.014451 -1.930310 -5.708184 1.960760 -0.673756 0.263885 1.277376 6.229403 4.303106 1.850717 -18.921361 0.000000 0.000000 0.000000 -24.305167 -11.734155 -5.237271 -43.532447 -10.464247 1.080599 -25.263493 -48.729437 9.054221 0.000000 0.000000 0.000000 14.898278 1.475236 4.645309 39.395966 10.133446 -1.996712 122.775908 63.958422 117.589947 0.000000 0.000000 0.000000 
0.087503 0.936747 -0.090250 -5.793224 48.132599 6.009083 5.137185 -0.968613 -8.314245 -0.459651 -0.269173 -8.220601 -7.442267 -6.771609 7.376548 0.000000 0.000000 0.000000 0.679581 0.639626 -8.201272 1.958600 -0.492405 -2.176467 1.198432 2.943626 4.691352 0.000000 0.000000 0.000000 -0.407115 0.011986 -1.952429 -5.859216 1.981179 -0.535329 0.476711 0.743863 6.182779 3.976495 1.890584 -18.365193 0.000000 0.000000 0.000000 -24.010140 -10.704466 -5.516842 -43.602423 -10.040050 0.829325 -26.973281 -49.522666 9.972127 0.000000 0.000000 0.000000 15.281562 -0.597872 3.418858 39.138810 5.329185 -3.370385 120.162344 57.619166 107.003010 0.000000 0.000000 0.000000 
0.088342 0.936661 -0.091051 -5.625355 48.240468 6.056005 4.840365 -0.918020 -7.945754 -0.493301 -0.271718 -8.202406 -7.220373 -6.490427 7.230310 0.000000 0.000000 0.000000 0.536768 0.607269 -7.871329 1.886974 -0.479297 -2.528206 0.840746 2.229424 5.153694 0.000000 0.000000 0.000000 -0.142522 0.009437 -2.384339 -5.718236 1.840089 0.109194 0.679196 0.780849 5.870465 3.585673 2.031930 -17.983982 0.000000 0.000000 0.000000 -23.859663 -10.118466 -5.756798 -43.747326 -9.927700 0.777222 -28.656398 -50.470973 10.879513 0.000000 0.000000 0.000000 14.686688 -0.729509 3.161014 39.226857 3.821928 -3.692688 118.426500 56.192123 103.058266 0.000000 0.000000 0.000000 
0.088386 0.936593 -0.091697 -5.895351 48.026843 6.131927 5.016317 -0.926239 -7.832495 -0.448159 -0.297600 -8.699979 -6.704418 -5.779777 7.019266 0.000000 0.000000 0.000000 0.761818 0.655226 -8.253908 1.802976 -0.462094 -2.933218 0.867041 2.300917 5.191090 0.000000 0.000000 0.000000 0.254275 0.008697 -2.828904 -5.788635 1.835477 0.382019 1.110080 1.115077 5.692765 3.786804 1.932154 -18.022459 0.000000 0.000000 0.000000 -23.754906 -10.270650 -5.655693 -44.195406 -9.832329 0.734030 -29.994521 -51.998915 11.811634 0.000000 0.000000 0.000000 14.045445 0.396481 3.637570 40.316004 6.314196 -2.885483 118.206032 58.333528 105.410683 0.000000 0.000000 0.000000 
0.087290 0.936156 -0.092325 -6.073836 46.908166 5.930048 5.267125 -0.918743 -7.529347 -0.409120 -0.227830 -7.988965 -6.192791 -5.834294 6.165817 0.000000 0.000000 0.000000 0.890180 0.685824 -8.273884 2.022298 -0.498996 -3.356004 1.232485 3.058230 5.163129 0.000000 0.000000 0.000000 0.709469 0.009886 -2.877447 -6.036466 1.945193 0.544477 1.329520 2.273279 5.883689 4.858811 1.388561 -18.109650 0.000000 0.000000 0.000000 -23.168370 -11.006617 -5.217153 -44.974766 -10.412167 0.893226 -28.711286 -54.160869 11.510140 0.000000 0.000000 0.000000 14.337913 3.478696 5.587317 40.640661 12.558177 -1.050942 117.787213 64.876457 111.947679 0.000000 0.000000 0.000000 
0.085036 0.936098 -0.093095 -6.396281 46.251806 5.526631 5.743763 -0.959459 -7.639754 -0.497897 -0.209774 -7.788308 -5.856956 -5.136387 6.264151 0.000000 0.000000 0.000000 1.093756 0.719566 -8.346756 2.122316 -0.515035 -3.520695 1.624394 3.901985 5.680124 0.000000 0.000000 0.000000 0.901465 0.008708 -2.504693 -6.568847 2.100528 1.038661 1.985514 3.632246 5.469577 5.984049 0.854209 -18.351944 0.000000 0.000000 0.000000 -22.288354 -12.640442 -4.263825 -45.792827 -11.938085 1.399257 -27.214194 -56.704526 11.056256 0.000000 0.000000 0.000000 14.378757 7.775286 8.213103 39.437043 20.286532 1.327007 118.054091 74.345193 121.025396 0.000000 0.000000 0.000000 
0.082416 0.936281 -0.093957 -6.571939 45.149665 5.100028 5.912444 -0.948136 -7.433508 -0.240495 -0.148771 -7.239108 -5.613590 -5.526155 5.531403 0.000000 0.000000 0.000000 1.256284 0.741757 -8.176348 2.378514 -0.562092 -4.060453 2.125525 4.917250 5.794025 0.000000 0.000000 0.000000 1.364475 -0.004108 -1.889661 -7.277429 2.400901 1.093685 2.408747 5.487243 5.639674 6.886521 0.386284 -18.055144 0.000000 0.000000 0.000000 -21.546533 -14.100042 -3.642641 -46.263370 -13.353991 1.915052 -26.247700 -59.126083 10.671674 0.000000 0.000000 0.000000 14.194525 12.286640 11.007838 36.940490 29.422663 4.020599 114.042716 86.039153 126.162485 0.000000 0.000000 0.000000 
0.080078 0.936575 -0.094718 -6.578221 45.055324 5.047466 5.917499 -0.963199 -7.717974 -0.151734 -0.137578 -7.098155 -5.820690 -5.586767 5.839179 0.000000 0.000000 0.000000 1.285521 0.745000 -8.199779 2.506000 -0.592537 -4.489441 2.316305 5.302351 6.246096 0.000000 0.000000 0.000000 1.856698 -0.023880 -1.628544 -7.809739 2.506527 1.798218 2.712483 6.819404 5.097258 7.772350 0.055914 -18.452084 0.000000 0.000000 0.000000 -20.451064 -15.554037 -2.847483 -47.029378 -15.073905 2.503724 -26.159540 -62.225626 10.799802 0.000000 0.000000 0.000000 12.163082 16.366954 12.670297 34.091938 38.251752 6.820164 -51.499637 80.222468 -31.192708 0.000000 0.000000 0.000000 
0.078444 0.937132 -0.095332 -6.708598 44.796942 4.888910 5.803631 -0.948321 -7.689538 0.424030 -0.112038 -7.224660 -6.140476 -6.246840 5.799326 0.000000 0.000000 0.000000 1.497790 0.756510 -7.880067 2.405198 -0.588093 -5.133889 2.469448 5.613748 6.683424 0.000000 0.000000 0.000000 2.259844 -0.053083 -1.114511 -8.177410 2.619571 2.065504 2.889054 8.274377 4.751073 8.625480 -0.384136 -18.236069 0.000000 0.000000 0.000000 -19.573612 -16.800581 -2.301793 -47.106773 -16.413304 2.989416 -27.519936 -64.602905 11.664823 0.000000 0.000000 0.000000 10.650717 19.261983 13.810934 27.719876 45.387546 7.488055 -51.509443 66.881652 -25.224067 0.000000 0.000000 0.000000 
0.077088 0.937672 -0.095836 -6.619145 45.264204 5.002803 5.710199 -0.964067 -7.996182 0.552559 -0.108549 -7.097420 -7.047601 -7.529310 6.201584 0.000000 0.000000 0.000000 1.367959 0.730910 -7.727830 2.765257 -0.661547 -5.452308 2.009406 4.695074 6.767342 0.000000 0.000000 0.000000 2.499568 -0.077220 -0.806346 -8.236033 2.602079 2.144538 3.165700 9.184698 4.604991 9.581839 -0.678841 -18.859606 0.000000 0.000000 0.000000 -18.694092 -17.778132 -1.871880 -47.532612 -17.497536 3.345912 -29.979537 -66.570514 13.167874 0.000000 0.000000 0.000000 8.419154 21.178458 13.976179 21.797876 51.109112 7.415199 -48.713910 53.571421 -18.232553 0.000000 0.000000 0.000000 
